
          <svg data-logo="logo" xmlns="http://www.w3.org/2000/svg" viewBox="0 0 217 42">
            <g id="logogram" transform="translate(0, 1) rotate(0)"><path d="M40 13.4683C40.0001 10.7823 39.1891 8.1589 37.673 5.9417C36.1569 3.72451 34.0065 2.01688 31.5035 1.04252C29.0005 0.0681476 26.2615 -0.127534 23.6455 0.48109C21.0293 1.08971 18.658 2.47428 16.8421 4.45341H0V40H35.5601V23.3873C36.9557 22.139 38.0726 20.6104 38.8377 18.9012C39.6027 17.192 39.9988 15.3409 40 13.4683ZM33.1579 13.4683C33.1606 14.7553 32.7814 16.0143 32.0683 17.0858C31.3551 18.1572 30.3402 18.9931 29.1518 19.4874C27.9634 19.9819 26.6552 20.1127 25.3924 19.8631C24.1298 19.6137 22.9695 18.9953 22.0584 18.0861C21.1474 17.1769 20.5266 16.0179 20.2745 14.7557C20.0224 13.4936 20.1505 12.185 20.6424 10.9957C21.1343 9.80626 21.968 8.78957 23.0379 8.07423C24.108 7.35888 25.3661 6.97705 26.6532 6.97703C28.376 6.97703 30.0285 7.6605 31.2479 8.87745C32.4675 10.0944 33.1544 11.7455 33.1579 13.4683ZM28.7179 33.1579H6.84211V11.2955H13.5088C13.38 12.0128 13.3123 12.7397 13.3063 13.4683C13.31 17.007 14.7173 20.3997 17.2196 22.902C19.7217 25.4042 23.1144 26.8116 26.6532 26.8151C27.3451 26.8115 28.0355 26.7528 28.7179 26.6397V33.1579Z" fill="#394149"/></g>
            <g id="logotype" transform="translate(46, 8)"><path fill="#111111" d="M13.49 26L8.31 26L8.31 0.54L16.31 0.54L20.44 12.23Q20.70 13.05 21.03 14.34Q21.36 15.64 21.71 17.15Q22.05 18.65 22.35 20.07Q22.65 21.49 22.83 22.53L22.83 22.53L21.83 22.53Q22.01 21.51 22.31 20.10Q22.61 18.69 22.95 17.18Q23.29 15.68 23.63 14.36Q23.96 13.05 24.22 12.23L24.22 12.23L28.29 0.54L36.32 0.54L36.32 26L31.07 26L31.07 13.99Q31.07 13.17 31.10 11.92Q31.14 10.67 31.17 9.23Q31.21 7.78 31.24 6.32Q31.28 4.86 31.29 3.56L31.29 3.56L31.62 3.56Q31.29 4.98 30.90 6.49Q30.51 8.00 30.11 9.42Q29.70 10.84 29.34 12.03Q28.99 13.22 28.73 13.99L28.73 13.99L24.51 26L20.12 26L15.83 13.99Q15.57 13.22 15.21 12.05Q14.85 10.88 14.45 9.46Q14.05 8.04 13.64 6.53Q13.23 5.01 12.85 3.56L12.85 3.56L13.26 3.56Q13.28 4.79 13.31 6.24Q13.35 7.70 13.39 9.16Q13.43 10.62 13.46 11.88Q13.49 13.13 13.49 13.99L13.49 13.99L13.49 26ZM47.06 26.38L47.06 26.38Q44.19 26.38 42.09 25.14Q39.99 23.90 38.85 21.68Q37.72 19.47 37.72 16.53L37.72 16.53Q37.72 13.56 38.85 11.35Q39.99 9.13 42.09 7.89Q44.19 6.65 47.06 6.65L47.06 6.65Q49.95 6.65 52.05 7.89Q54.14 9.13 55.28 11.35Q56.41 13.56 56.41 16.53L56.41 16.53Q56.41 19.47 55.28 21.68Q54.14 23.90 52.05 25.14Q49.95 26.38 47.06 26.38ZM47.06 22.34L47.06 22.34Q48.43 22.34 49.35 21.58Q50.28 20.82 50.74 19.50Q51.20 18.17 51.20 16.52L51.20 16.52Q51.20 14.82 50.74 13.51Q50.28 12.19 49.35 11.44Q48.43 10.69 47.06 10.69L47.06 10.69Q45.70 10.69 44.78 11.44Q43.87 12.19 43.41 13.51Q42.95 14.82 42.95 16.52L42.95 16.52Q42.95 18.17 43.41 19.50Q43.87 20.82 44.78 21.58Q45.70 22.34 47.06 22.34ZM66.25 26.38L66.25 26.38Q63.37 26.38 61.27 25.14Q59.18 23.90 58.04 21.68Q56.91 19.47 56.91 16.53L56.91 16.53Q56.91 13.56 58.04 11.35Q59.18 9.13 61.27 7.89Q63.37 6.65 66.25 6.65L66.25 6.65Q67.95 6.65 69.38 7.10Q70.82 7.54 71.93 8.36Q73.04 9.18 73.76 10.36Q74.47 11.54 74.75 13.01L74.75 13.01L69.98 13.90Q69.83 13.15 69.50 12.56Q69.18 11.97 68.72 11.55Q68.25 11.13 67.65 10.91Q67.04 10.69 66.31 10.69L66.31 10.69Q64.94 10.69 64.01 11.42Q63.08 12.16 62.61 13.47Q62.14 14.79 62.14 16.52L62.14 16.52Q62.14 18.22 62.61 19.53Q63.08 20.84 64.01 21.59Q64.94 22.34 66.31 22.34L66.31 22.34Q67.04 22.34 67.66 22.11Q68.27 21.88 68.75 21.45Q69.23 21.01 69.55 20.39Q69.88 19.78 70.01 19.01L70.01 19.01L74.78 19.88Q74.51 21.40 73.79 22.59Q73.07 23.78 71.96 24.63Q70.85 25.49 69.41 25.93Q67.96 26.38 66.25 26.38ZM84.16 16.48L80.68 20.41L80.68 14.24L81.45 14.24L87.70 6.89L93.63 6.89L85.38 16.48L84.16 16.48ZM81.15 26L76.03 26L76.03 0.54L81.15 0.54L81.15 26ZM93.99 26L87.96 26L82.21 17.63L85.65 13.99L93.99 26ZM99.35 26L94.18 26L94.18 0.54L102.17 0.54L106.31 12.23Q106.57 13.05 106.90 14.34Q107.23 15.64 107.57 17.15Q107.92 18.65 108.21 20.07Q108.51 21.49 108.70 22.53L108.70 22.53L107.69 22.53Q107.88 21.51 108.18 20.10Q108.48 18.69 108.82 17.18Q109.16 15.68 109.50 14.36Q109.83 13.05 110.09 12.23L110.09 12.23L114.15 0.54L122.19 0.54L122.19 26L116.94 26L116.94 13.99Q116.94 13.17 116.97 11.92Q117.01 10.67 117.04 9.23Q117.08 7.78 117.11 6.32Q117.14 4.86 117.16 3.56L117.16 3.56L117.49 3.56Q117.16 4.98 116.77 6.49Q116.38 8.00 115.97 9.42Q115.57 10.84 115.21 12.03Q114.85 13.22 114.60 13.99L114.60 13.99L110.38 26L105.98 26L101.69 13.99Q101.44 13.22 101.08 12.05Q100.72 10.88 100.32 9.46Q99.92 8.04 99.51 6.53Q99.10 5.01 98.72 3.56L98.72 3.56L99.13 3.56Q99.15 4.79 99.18 6.24Q99.22 7.70 99.26 9.16Q99.30 10.62 99.33 11.88Q99.35 13.13 99.35 13.99L99.35 13.99L99.35 26ZM129.72 26.38L129.72 26.38Q127.91 26.38 126.46 25.74Q125.02 25.09 124.19 23.82Q123.36 22.55 123.36 20.65L123.36 20.65Q123.36 19.06 123.95 17.98Q124.54 16.91 125.56 16.26Q126.58 15.61 127.87 15.27Q129.16 14.93 130.57 14.79L130.57 14.79Q132.23 14.62 133.25 14.47Q134.27 14.33 134.74 14.01Q135.21 13.70 135.21 13.08L135.21 13.08L135.21 12.99Q135.21 12.17 134.86 11.61Q134.52 11.05 133.86 10.75Q133.19 10.45 132.22 10.45L132.22 10.45Q131.22 10.45 130.49 10.75Q129.75 11.05 129.29 11.54Q128.83 12.04 128.61 12.65L128.61 12.65L123.91 11.87Q124.41 10.21 125.55 9.05Q126.70 7.88 128.40 7.27Q130.10 6.65 132.22 6.65L132.22 6.65Q133.77 6.65 135.22 7.02Q136.68 7.39 137.83 8.16Q138.98 8.93 139.66 10.16Q140.33 11.39 140.33 13.13L140.33 13.13L140.33 26L135.48 26L135.48 23.35L135.31 23.35Q134.85 24.24 134.08 24.91Q133.31 25.59 132.22 25.98Q131.14 26.38 129.72 26.38ZM131.17 22.77L131.17 22.77Q132.39 22.77 133.30 22.29Q134.21 21.81 134.73 20.99Q135.24 20.17 135.24 19.16L135.24 19.16L135.24 17.10Q135.02 17.27 134.56 17.40Q134.10 17.54 133.53 17.64Q132.97 17.75 132.42 17.83Q131.87 17.92 131.45 17.97L131.45 17.97Q130.51 18.10 129.79 18.41Q129.07 18.72 128.68 19.22Q128.28 19.73 128.28 20.51L128.28 20.51Q128.28 21.25 128.66 21.75Q129.04 22.26 129.68 22.51Q130.32 22.77 131.17 22.77ZM140.59 6.89L151.92 6.89L151.92 10.81L140.59 10.81L140.59 6.89ZM143.22 20.86L143.22 2.35L148.35 2.35L148.35 20.41Q148.35 21.32 148.75 21.75Q149.15 22.19 150.09 22.19L150.09 22.19Q150.38 22.19 150.91 22.11Q151.44 22.04 151.71 21.97L151.71 21.97L152.45 25.81Q151.59 26.07 150.75 26.17Q149.90 26.27 149.13 26.27L149.13 26.27Q146.26 26.27 144.74 24.87Q143.22 23.47 143.22 20.86L143.22 20.86ZM161.61 26.38L161.61 26.38Q158.68 26.38 156.56 25.18Q154.45 23.98 153.31 21.78Q152.17 19.57 152.17 16.55L152.17 16.55Q152.17 13.59 153.30 11.37Q154.43 9.15 156.50 7.90Q158.56 6.65 161.35 6.65L161.35 6.65Q163.23 6.65 164.85 7.25Q166.48 7.85 167.71 9.06Q168.94 10.26 169.63 12.07Q170.32 13.88 170.32 16.34L170.32 16.34L170.32 17.78L154.27 17.78L154.27 14.57L167.81 14.57L165.42 15.42Q165.42 13.93 164.96 12.83Q164.51 11.73 163.61 11.12Q162.72 10.52 161.38 10.52L161.38 10.52Q160.07 10.52 159.14 11.13Q158.20 11.75 157.73 12.80Q157.25 13.85 157.25 15.20L157.25 15.20L157.25 17.47Q157.25 19.13 157.80 20.26Q158.36 21.39 159.36 21.95Q160.36 22.51 161.69 22.51L161.69 22.51Q162.60 22.51 163.33 22.26Q164.07 22.00 164.59 21.50Q165.11 20.99 165.38 20.26L165.38 20.26L170.03 21.13Q169.57 22.70 168.42 23.89Q167.28 25.08 165.56 25.73Q163.84 26.38 161.61 26.38Z"/></g>
            
          </svg>
        