<?xml version="1.0" standalone="no"?>
<!DOCTYPE svg PUBLIC "-//W3C//DTD SVG 20010904//EN"
 "http://www.w3.org/TR/2001/REC-SVG-20010904/DTD/svg10.dtd">
<svg version="1.0" xmlns="http://www.w3.org/2000/svg"
 width="220.000000pt" height="220.000000pt" viewBox="0 0 220.000000 220.000000"
 preserveAspectRatio="xMidYMid meet">

<g transform="translate(0.000000,220.000000) scale(0.100000,-0.100000)"
fill="#000000" stroke="none">
<path d="M974 2020 c-67 -26 -130 -80 -121 -103 11 -30 35 -30 74 0 105 82
245 83 345 3 40 -32 63 -34 74 -5 9 22 -26 56 -89 91 -70 38 -205 45 -283 14z"/>
<path d="M1023 1880 c-34 -20 -42 -47 -22 -67 9 -9 21 -7 48 8 45 24 68 24
106 -1 21 -14 33 -16 42 -8 41 33 -19 88 -97 88 -27 0 -58 -8 -77 -20z"/>
<path d="M278 1715 c-170 -47 -288 -212 -276 -387 8 -129 99 -262 216 -316 73
-33 209 -44 224 -18 12 21 83 22 92 1 4 -12 34 -15 153 -17 l148 -3 3 -67 c3
-61 6 -69 33 -92 17 -15 41 -26 55 -26 20 0 24 -5 24 -28 0 -25 -6 -30 -40
-41 -45 -13 -70 -43 -70 -83 0 -28 -1 -28 -65 -28 -144 0 -169 -35 -163 -229
4 -146 17 -179 83 -211 38 -18 63 -20 281 -20 240 0 240 0 261 23 19 23 20 24
2 35 -13 8 -93 12 -251 12 -128 0 -243 3 -256 6 -40 11 -52 52 -52 177 0 74 4
117 12 125 17 17 799 17 816 0 8 -8 12 -53 12 -135 0 -118 -1 -125 -25 -148
-20 -21 -34 -25 -88 -25 -66 0 -89 -11 -79 -39 9 -25 23 -31 81 -31 78 0 138
31 162 84 15 33 19 65 19 166 0 80 -5 134 -13 150 -20 40 -72 61 -146 59 -64
-2 -65 -2 -68 27 -6 43 -35 78 -76 88 -32 8 -37 14 -37 38 0 23 4 28 25 28 14
0 39 13 57 28 28 26 32 35 34 93 l3 64 278 5 c276 5 278 5 335 32 74 34 152
113 186 186 23 49 26 71 27 152 0 84 -3 102 -29 157 -35 76 -113 153 -193 191
l-58 27 -795 2 c-631 1 -805 -1 -842 -12z m1244 -85 c46 -31 68 -77 68 -141 0
-53 15 -93 31 -84 5 4 9 -11 9 -34 0 -28 -5 -43 -17 -50 -14 -7 -19 -28 -23
-95 -7 -101 -23 -129 -91 -164 -44 -23 -46 -23 -404 -20 -403 3 -407 4 -455
75 -24 35 -25 44 -28 208 -5 227 5 263 88 314 34 21 41 21 411 19 l375 -3 36
-25z m-342 -872 l0 -28 -80 0 c-78 0 -80 1 -80 24 0 22 5 25 43 28 23 2 59 3
79 3 35 0 38 -2 38 -27z"/>
<path d="M711 1614 c0 -11 3 -14 6 -6 3 7 2 16 -1 19 -3 4 -6 -2 -5 -13z"/>
<path d="M760 1609 c0 -5 5 -7 10 -4 6 3 10 8 10 11 0 2 -4 4 -10 4 -5 0 -10
-5 -10 -11z"/>
<path d="M982 1594 c-223 -111 -190 -440 51 -505 87 -23 191 6 259 73 18 18
37 32 41 30 5 -1 6 2 2 7 -3 6 2 22 11 36 11 16 19 54 22 99 5 84 -13 137 -69
201 -75 85 -213 111 -317 59z m164 -187 c54 -47 24 -127 -47 -127 -66 0 -95
88 -43 129 34 27 57 26 90 -2z"/>
<path d="M658 1590 c-12 -11 -18 -19 -12 -20 5 0 15 5 22 12 6 6 15 8 19 4 4
-4 1 -11 -7 -16 -13 -8 -12 -10 2 -10 24 0 32 18 15 35 -13 13 -18 12 -39 -5z"/>
<path d="M730 1555 c0 -14 5 -25 10 -25 6 0 10 11 10 25 0 14 -4 25 -10 25 -5
0 -10 -11 -10 -25z"/>
<path d="M626 1498 c-8 -31 -6 -279 2 -300 4 -9 7 59 7 152 0 94 -1 170 -1
170 -1 0 -4 -10 -8 -22z"/>
<path d="M732 1309 c-2 -163 0 -179 18 -200 23 -28 27 -13 5 18 -11 16 -15 61
-18 189 l-3 169 -2 -176z"/>
<path d="M1432 1381 c-8 -4 -12 -19 -10 -32 3 -22 7 -24 63 -24 l60 0 0 30 c0
29 -2 30 -50 33 -27 1 -56 -2 -63 -7z"/>
<path d="M653 1139 c-1 -10 2 -19 8 -19 11 0 12 27 1 34 -4 2 -9 -4 -9 -15z"/>
<path d="M690 1126 c0 -9 -4 -16 -10 -16 -5 0 -7 -7 -3 -16 6 -16 7 -16 18 -1
7 9 15 14 18 10 4 -3 7 -2 7 4 0 6 -7 16 -15 23 -12 10 -15 10 -15 -4z"/>
<path d="M733 1063 c9 -2 23 -2 30 0 6 3 -1 5 -18 5 -16 0 -22 -2 -12 -5z"/>
<path d="M827 522 c6 -4 13 -25 16 -47 4 -40 4 -40 5 8 2 39 -1 47 -15 47 -12
0 -14 -3 -6 -8z"/>
<path d="M702 398 c-1 -85 2 -128 9 -128 5 0 8 -4 4 -9 -3 -6 7 -6 26 -1 44
13 46 18 7 17 l-33 -2 -5 125 -6 125 -2 -127z"/>
<path d="M801 395 c-2 -72 -3 -133 -2 -137 0 -5 -11 -9 -27 -9 -15 -1 -20 -3
-12 -5 8 -2 35 0 60 5 44 9 44 9 10 10 -19 1 -30 5 -25 9 6 4 8 54 5 132 l-6
125 -3 -130z"/>
<path d="M955 441 c-3 -10 -3 -26 1 -35 5 -14 25 -16 145 -16 l139 0 6 24 c3
14 3 30 -1 35 -4 7 -58 11 -145 11 -126 0 -139 -2 -145 -19z"/>
<path d="M839 318 c-3 -30 0 -48 6 -48 7 0 9 15 7 38 -6 58 -9 61 -13 10z"/>
</g>
</svg>
